<?xml version="1.0" encoding="UTF-8"?>
<svg version="1.1" xmlns="http://www.w3.org/2000/svg" width="512" height="512">
<path d="M0 0 C25.07721328 23.94856233 42.84059853 64.3457192 47.90234375 98.27734375 C48.58039063 98.2309375 49.2584375 98.18453125 49.95703125 98.13671875 C59.07428193 97.78314116 66.03163366 99.59573258 73.08984375 105.52734375 C74.37973818 106.75766474 75.65107932 108.00775536 76.90234375 109.27734375 C77.49789063 109.85097656 78.0934375 110.42460937 78.70703125 111.015625 C95.11625428 128.04475201 98.32938312 154.95292704 98.21484375 177.40234375 C98.21235626 178.17935638 98.20986877 178.95636902 98.20730591 179.75692749 C98.15080813 191.15700566 97.90894128 202.21256788 94.90234375 213.27734375 C94.6712793 214.13537598 94.44021484 214.9934082 94.20214844 215.87744141 C84.91106136 249.31951144 66.10989108 277.45345919 35.90234375 295.27734375 C34.28124518 296.09760021 32.65681397 296.91134636 31.02734375 297.71484375 C26.53166403 300.13241001 24.01406145 303.57344503 20.9765625 307.6015625 C11.21875213 320.18932164 -1.98679034 329.19311311 -16.09765625 336.27734375 C-15.85982422 337.06431641 -15.85982422 337.06431641 -15.6171875 337.8671875 C-15.10566095 339.56568172 -14.59689682 341.2650087 -14.08984375 342.96484375 C-13.35273081 345.42575625 -12.60684199 347.88329926 -11.85546875 350.33984375 C-6.09765625 369.32564184 -6.09765625 369.32564184 -6.09765625 378.27734375 C-5.515 378.54546875 -4.93234375 378.81359375 -4.33203125 379.08984375 C3.99181441 383.51370578 12.26969473 392.59442659 15.90234375 401.27734375 C16.45819375 405.64473658 16.36752934 407.57956537 13.90234375 411.27734375 C10.67380959 413.42969986 8.75304233 413.92237404 4.90625 413.20703125 C1.0457447 411.4159976 -0.96273335 407.82746176 -3.09765625 404.27734375 C-3.27941406 404.90382813 -3.46117187 405.5303125 -3.6484375 406.17578125 C-3.89980469 406.99304688 -4.15117187 407.8103125 -4.41015625 408.65234375 C-4.65378906 409.46445312 -4.89742188 410.2765625 -5.1484375 411.11328125 C-6.09765625 413.27734375 -6.09765625 413.27734375 -9.09765625 415.27734375 C-12.11210698 415.61228272 -14.19666227 415.83297768 -17.09765625 415.27734375 C-20.43550718 412.53859427 -21.29572081 410.1080391 -21.84765625 405.96484375 C-21.93015625 404.74796875 -22.01265625 403.53109375 -22.09765625 402.27734375 C-22.49597656 402.90382813 -22.89429688 403.5303125 -23.3046875 404.17578125 C-23.83449219 404.99304688 -24.36429687 405.8103125 -24.91015625 406.65234375 C-25.43222656 407.46445312 -25.95429688 408.2765625 -26.4921875 409.11328125 C-28.09765625 411.27734375 -28.09765625 411.27734375 -31.09765625 413.27734375 C-34.84743988 413.14098798 -37.36772118 412.71530479 -40.59765625 410.77734375 C-42.57373703 407.48387579 -42.44431005 405.44193191 -41.83203125 401.70703125 C-39.52136779 394.06217662 -32.55743277 385.21099107 -25.89453125 380.828125 C-23.91571967 379.44452985 -23.91571967 379.44452985 -23.71484375 377.28125 C-24.93038709 365.77042288 -28.56271469 353.92459784 -33.09765625 343.27734375 C-33.6395459 343.39327881 -34.18143555 343.50921387 -34.73974609 343.62866211 C-52.44974594 347.35973283 -69.06004952 349.00661283 -87.09765625 347.27734375 C-86.77152344 348.34210938 -86.44539063 349.406875 -86.109375 350.50390625 C-85.6670973 351.96978944 -85.22576011 353.43595658 -84.78515625 354.90234375 C-84.43578003 356.05355713 -84.43578003 356.05355713 -84.0793457 357.22802734 C-82.99219951 360.89378277 -81.99681765 364.50121853 -81.37890625 368.27734375 C-80.21309657 375.39491865 -79.19676037 379.37503669 -73.28515625 383.7109375 C-72.56328125 384.22785156 -71.84140625 384.74476563 -71.09765625 385.27734375 C-64.96103967 390.79353035 -58.72818746 396.54835965 -57.59765625 405.02734375 C-58.37238152 410.06305804 -58.37238152 410.06305804 -61.09765625 412.27734375 C-63.81351396 413.18262965 -66.24174341 413.50693674 -69.09765625 413.27734375 C-73.36202114 410.85440915 -75.56233279 407.40898198 -78.09765625 403.27734375 C-78.26201172 404.32535156 -78.26201172 404.32535156 -78.4296875 405.39453125 C-78.66751953 406.75964844 -78.66751953 406.75964844 -78.91015625 408.15234375 C-79.06097656 409.05726563 -79.21179688 409.9621875 -79.3671875 410.89453125 C-80.09765625 413.27734375 -80.09765625 413.27734375 -83.09765625 415.27734375 C-90.11652417 416.05721796 -90.11652417 416.05721796 -93.53515625 413.33984375 C-95.5735875 409.3445185 -95.90434711 405.71378859 -96.09765625 401.27734375 C-96.484375 401.97601563 -96.87109375 402.6746875 -97.26953125 403.39453125 C-97.7903125 404.30460937 -98.31109375 405.2146875 -98.84765625 406.15234375 C-99.358125 407.05726563 -99.86859375 407.9621875 -100.39453125 408.89453125 C-102.18856841 411.40453737 -103.20240099 412.31412537 -106.09765625 413.27734375 C-109.778264 413.14819962 -112.16933275 413.05593766 -115.03515625 410.65234375 C-116.61157385 407.12858676 -116.65819634 405.13884213 -116.09765625 401.27734375 C-112.35552907 392.84338287 -105.78615773 384.4030114 -98.09765625 379.27734375 C-98.53642147 370.20952922 -100.93424804 361.94584416 -103.52050781 353.30029297 C-104.00199829 351.61263217 -104.40030223 349.9015221 -104.77734375 348.1875 C-105.31323183 345.51189023 -105.31323183 345.51189023 -107.09765625 342.27734375 C-110.5363956 341.11842472 -110.5363956 341.11842472 -113.19921875 340.83203125 C-127.95509187 338.008131 -142.90502857 327.95466184 -154.09765625 318.27734375 C-155.06703125 319.14359375 -156.03640625 320.00984375 -157.03515625 320.90234375 C-179.90697459 340.42146583 -210.07723067 345.06293377 -239.09765625 347.27734375 C-239.21810303 347.83856934 -239.3385498 348.39979492 -239.46264648 348.97802734 C-240.83222574 355.26368919 -242.47346777 361.43026521 -244.1953125 367.62890625 C-244.49308594 368.83289063 -244.79085937 370.036875 -245.09765625 371.27734375 C-245.41734375 372.46457031 -245.73703125 373.65179688 -246.06640625 374.875 C-246.45310969 378.45694948 -246.45310969 378.45694948 -243.78125 381.234375 C-242.71489489 382.20372802 -241.631824 383.15492219 -240.53515625 384.08984375 C-234.34436444 389.80206365 -229.65221233 395.43078656 -227.03515625 403.58984375 C-227.11436773 406.99593745 -228.02019571 408.60632306 -230.09765625 411.27734375 C-233.09765625 413.27734375 -233.09765625 413.27734375 -236.59765625 413.08984375 C-240.89597759 412.09201915 -242.06654522 410.79641718 -244.484375 407.234375 C-244.91363281 406.52667969 -245.34289062 405.81898438 -245.78515625 405.08984375 C-246.22214844 404.37441406 -246.65914062 403.65898437 -247.109375 402.921875 C-247.43550781 402.37917969 -247.76164063 401.83648437 -248.09765625 401.27734375 C-248.1234375 401.9528125 -248.14921875 402.62828125 -248.17578125 403.32421875 C-248.63169715 410.49453246 -248.63169715 410.49453246 -250.66015625 413.90234375 C-254.16478001 415.879311 -257.17435081 416.19573558 -261.09765625 415.27734375 C-264.38215089 412.49815598 -265.01624753 410.69117141 -265.84765625 406.46484375 C-265.93015625 405.41296875 -266.01265625 404.36109375 -266.09765625 403.27734375 C-266.49597656 403.83164062 -266.89429688 404.3859375 -267.3046875 404.95703125 C-267.83449219 405.68148438 -268.36429688 406.4059375 -268.91015625 407.15234375 C-269.69326172 408.23128906 -269.69326172 408.23128906 -270.4921875 409.33203125 C-272.09765625 411.27734375 -272.09765625 411.27734375 -275.09765625 413.27734375 C-278.46521645 413.09693874 -281.08879231 412.91629091 -283.97265625 411.08984375 C-285.67957643 408.33980568 -286.0361183 406.538855 -286.09765625 403.27734375 C-283.07835055 394.21942665 -274.72529178 385.41873137 -266.88671875 380.09765625 C-262.75844346 375.92312578 -262.33332238 371.49501454 -261.34765625 365.83984375 C-260.95977205 363.79895635 -260.5692229 361.75857332 -260.17578125 359.71875 C-259.99724609 358.7714502 -259.81871094 357.82415039 -259.63476562 356.84814453 C-259.01841513 353.89806696 -258.16148558 351.09649148 -257.09765625 348.27734375 C-258.03895386 348.2633252 -258.03895386 348.2633252 -258.99926758 348.24902344 C-274.47648517 347.96144238 -290.67914989 347.61921144 -305.09765625 341.27734375 C-307.43192465 348.75663712 -309.41345818 356.29539307 -311.28515625 363.90234375 C-311.55779297 365.00191406 -311.83042969 366.10148437 -312.11132812 367.234375 C-312.77561578 369.91483397 -313.43768247 372.59582001 -314.09765625 375.27734375 C-313.17412354 375.71626953 -313.17412354 375.71626953 -312.23193359 376.1640625 C-304.6921176 380.09697956 -298.32420134 388.53848748 -295.09765625 396.27734375 C-294.40591002 399.4754169 -294.24649728 402.10484215 -295.09765625 405.27734375 C-297.16015625 407.90234375 -297.16015625 407.90234375 -300.09765625 409.27734375 C-303.93996411 409.27734375 -306.18213624 408.95744433 -309.28515625 406.65234375 C-311.56565253 403.66410724 -313.31512939 400.58775078 -315.09765625 397.27734375 C-315.1234375 397.9528125 -315.14921875 398.62828125 -315.17578125 399.32421875 C-315.63169715 406.49453246 -315.63169715 406.49453246 -317.66015625 409.90234375 C-321.17377201 411.88438341 -324.15975471 412.0536036 -328.09765625 411.27734375 C-330.53515625 409.77734375 -330.53515625 409.77734375 -332.09765625 407.27734375 C-332.70151537 404.5728807 -332.91213989 402.06008916 -333.09765625 399.27734375 C-333.52175781 399.91542969 -333.94585937 400.55351562 -334.3828125 401.2109375 C-339.15699086 407.93675801 -339.15699086 407.93675801 -343.72265625 409.58984375 C-347.90697373 409.20240695 -349.37727308 408.47779453 -352.09765625 405.27734375 C-353.34765625 402.21484375 -353.34765625 402.21484375 -353.09765625 398.27734375 C-349.26596375 389.72255807 -341.15736976 379.69728788 -332.8828125 375.02734375 C-329.89612658 372.09947659 -329.85197323 368.29435743 -329.22265625 364.27734375 C-327.40395641 353.94606551 -324.46429689 344.19771152 -321.09765625 334.27734375 C-321.70351563 333.87644531 -322.309375 333.47554688 -322.93359375 333.0625 C-329.48967157 328.61445336 -335.35085391 323.7236597 -341.09765625 318.27734375 C-341.8453125 317.5709375 -342.59296875 316.86453125 -343.36328125 316.13671875 C-346.33210145 313.25586359 -348.79151733 310.81598461 -350.8515625 307.19140625 C-353.66881502 303.53632733 -356.3619097 302.85110687 -360.66015625 301.83984375 C-377.72175874 297.12194982 -389.38417193 285.41802043 -398.01855469 270.25927734 C-409.14075291 249.83167436 -414.48806326 227.63028342 -414.41333008 204.39379883 C-414.41016372 202.34467542 -414.43376731 200.29699421 -414.45898438 198.24804688 C-414.53317202 182.84793783 -411.76118952 166.37009033 -401.84375 154.03125 C-397.25685408 149.42383105 -391.65612069 145.43146832 -385.03125 145.14453125 C-383.87753906 145.14710938 -382.72382813 145.1496875 -381.53515625 145.15234375 C-380.37886719 145.14976562 -379.22257812 145.1471875 -378.03125 145.14453125 C-375.09765625 145.27734375 -375.09765625 145.27734375 -373.09765625 146.27734375 C-372.89140625 144.97796875 -372.68515625 143.67859375 -372.47265625 142.33984375 C-369.65492368 128.46642438 -363.7752355 115.66945438 -357.09765625 103.27734375 C-356.54335938 102.22933594 -355.9890625 101.18132812 -355.41796875 100.1015625 C-338.7114149 69.9258492 -310.44695681 47.52062499 -277.578125 37.53125 C-246.41174523 28.58925193 -213.41119848 32.6216204 -185.09765625 48.27734375 C-184.82953125 47.38015625 -184.56140625 46.48296875 -184.28515625 45.55859375 C-179.81561534 31.32663455 -174.1150608 18.5037454 -164.09765625 7.27734375 C-163.44539062 6.47167969 -162.793125 5.66601562 -162.12109375 4.8359375 C-144.92427472 -15.74227853 -117.27882276 -27.25864773 -91.16015625 -30.41015625 C-56.65125952 -33.11232108 -25.73405426 -23.03850684 0 0 Z " fill="#59CAFE" transform="translate(414.09765625,89.72265625)"/>
<path d="M0 0 C3.03952033 2.66822839 5.9016272 5.48087926 8.74609375 8.35546875 C9.34035156 8.9278125 9.93460938 9.50015625 10.546875 10.08984375 C24.88162754 25.08144479 27.98883861 46.59818204 28.05859375 66.35546875 C28.06121216 67.06322449 28.06383057 67.77098022 28.06652832 68.50018311 C28.07163613 81.44374863 26.72981644 93.73305953 23.74609375 106.35546875 C23.46894531 107.556875 23.19179688 108.75828125 22.90625 109.99609375 C21.98763028 113.5012418 20.91127328 116.92681114 19.74609375 120.35546875 C19.45637695 121.21769043 19.16666016 122.07991211 18.86816406 122.96826172 C14.38456816 136.1778293 9.36713752 149.03671096 3.46459961 161.6809082 C-1.69271728 172.92783706 -3.80220102 183.23811333 -3.69140625 195.60546875 C-3.68455811 196.7869751 -3.67770996 197.96848145 -3.6706543 199.18579102 C-3.50058888 208.48461112 -2.36884623 216.58070318 0.74609375 225.35546875 C1.11992187 226.42539062 1.49375 227.4953125 1.87890625 228.59765625 C6.54149667 240.73274256 14.30747002 252.76412544 24.078125 261.421875 C25.74609375 263.35546875 25.74609375 263.35546875 25.7578125 265.3359375 C19.83481303 277.15906772 3.8736398 282.49826966 -7.87890625 286.54296875 C-24.32058615 291.90763094 -41.0691281 294.04418046 -58.25390625 295.35546875 C-58.37435303 295.91669434 -58.4947998 296.47791992 -58.61889648 297.05615234 C-59.98847574 303.34181419 -61.62971777 309.50839021 -63.3515625 315.70703125 C-63.64933594 316.91101563 -63.94710937 318.115 -64.25390625 319.35546875 C-64.57359375 320.54269531 -64.89328125 321.72992188 -65.22265625 322.953125 C-65.60935969 326.53507448 -65.60935969 326.53507448 -62.9375 329.3125 C-61.87114489 330.28185302 -60.788074 331.23304719 -59.69140625 332.16796875 C-53.50061444 337.88018865 -48.80846233 343.50891156 -46.19140625 351.66796875 C-46.27061773 355.07406245 -47.17644571 356.68444806 -49.25390625 359.35546875 C-52.25390625 361.35546875 -52.25390625 361.35546875 -55.75390625 361.16796875 C-60.05222759 360.17014415 -61.22279522 358.87454218 -63.640625 355.3125 C-64.06988281 354.60480469 -64.49914062 353.89710938 -64.94140625 353.16796875 C-65.37839844 352.45253906 -65.81539062 351.73710937 -66.265625 351 C-66.59175781 350.45730469 -66.91789063 349.91460937 -67.25390625 349.35546875 C-67.2796875 350.0309375 -67.30546875 350.70640625 -67.33203125 351.40234375 C-67.78794715 358.57265746 -67.78794715 358.57265746 -69.81640625 361.98046875 C-73.32103001 363.957436 -76.33060081 364.27386058 -80.25390625 363.35546875 C-83.53840089 360.57628098 -84.17249753 358.76929641 -85.00390625 354.54296875 C-85.08640625 353.49109375 -85.16890625 352.43921875 -85.25390625 351.35546875 C-85.65222656 351.90976562 -86.05054688 352.4640625 -86.4609375 353.03515625 C-86.99074219 353.75960938 -87.52054688 354.4840625 -88.06640625 355.23046875 C-88.84951172 356.30941406 -88.84951172 356.30941406 -89.6484375 357.41015625 C-91.25390625 359.35546875 -91.25390625 359.35546875 -94.25390625 361.35546875 C-97.62146645 361.17506374 -100.24504231 360.99441591 -103.12890625 359.16796875 C-104.83582643 356.41793068 -105.1923683 354.61698 -105.25390625 351.35546875 C-102.23460055 342.29755165 -93.88154178 333.49685637 -86.04296875 328.17578125 C-81.91469346 324.00125078 -81.48957238 319.57313954 -80.50390625 313.91796875 C-80.11602205 311.87708135 -79.7254729 309.83669832 -79.33203125 307.796875 C-79.15349609 306.8495752 -78.97496094 305.90227539 -78.79101562 304.92626953 C-78.17466513 301.97619196 -77.31773558 299.17461648 -76.25390625 296.35546875 C-77.19520386 296.3414502 -77.19520386 296.3414502 -78.15551758 296.32714844 C-93.63273517 296.03956738 -109.83539989 295.69733644 -124.25390625 289.35546875 C-126.58817465 296.83476212 -128.56970818 304.37351807 -130.44140625 311.98046875 C-130.71404297 313.08003906 -130.98667969 314.17960937 -131.26757812 315.3125 C-131.93186578 317.99295897 -132.59393247 320.67394501 -133.25390625 323.35546875 C-132.33037354 323.79439453 -132.33037354 323.79439453 -131.38818359 324.2421875 C-123.8483676 328.17510456 -117.48045134 336.61661248 -114.25390625 344.35546875 C-113.56216002 347.5535419 -113.40274728 350.18296715 -114.25390625 353.35546875 C-116.31640625 355.98046875 -116.31640625 355.98046875 -119.25390625 357.35546875 C-123.09621411 357.35546875 -125.33838624 357.03556933 -128.44140625 354.73046875 C-130.72190253 351.74223224 -132.47137939 348.66587578 -134.25390625 345.35546875 C-134.2796875 346.0309375 -134.30546875 346.70640625 -134.33203125 347.40234375 C-134.78794715 354.57265746 -134.78794715 354.57265746 -136.81640625 357.98046875 C-140.33002201 359.96250841 -143.31600471 360.1317286 -147.25390625 359.35546875 C-149.69140625 357.85546875 -149.69140625 357.85546875 -151.25390625 355.35546875 C-151.85776537 352.6510057 -152.06838989 350.13821416 -152.25390625 347.35546875 C-152.67800781 347.99355469 -153.10210937 348.63164062 -153.5390625 349.2890625 C-158.31324086 356.01488301 -158.31324086 356.01488301 -162.87890625 357.66796875 C-167.06322373 357.28053195 -168.53352308 356.55591953 -171.25390625 353.35546875 C-172.50390625 350.29296875 -172.50390625 350.29296875 -172.25390625 346.35546875 C-168.42221375 337.80068307 -160.31361976 327.77541288 -152.0390625 323.10546875 C-149.05237658 320.17760159 -149.00822323 316.37248243 -148.37890625 312.35546875 C-146.56020641 302.02419051 -143.62054689 292.27583652 -140.25390625 282.35546875 C-140.85976562 281.95457031 -141.465625 281.55367188 -142.08984375 281.140625 C-148.64592157 276.69257836 -154.50710391 271.8017847 -160.25390625 266.35546875 C-161.0015625 265.6490625 -161.74921875 264.94265625 -162.51953125 264.21484375 C-165.48835145 261.33398859 -167.94776733 258.89410961 -170.0078125 255.26953125 C-172.82506502 251.61445233 -175.5181597 250.92923187 -179.81640625 249.91796875 C-196.87800874 245.20007482 -208.54042193 233.49614543 -217.17480469 218.33740234 C-228.29700291 197.90979936 -233.64431326 175.70840842 -233.56958008 152.47192383 C-233.56641372 150.42280042 -233.59001731 148.37511921 -233.61523438 146.32617188 C-233.68942202 130.92606283 -230.91743952 114.44821533 -221 102.109375 C-216.41310408 97.50195605 -210.81237069 93.50959332 -204.1875 93.22265625 C-203.03378906 93.22523438 -201.88007813 93.2278125 -200.69140625 93.23046875 C-199.53511719 93.22789062 -198.37882812 93.2253125 -197.1875 93.22265625 C-194.25390625 93.35546875 -194.25390625 93.35546875 -192.25390625 94.35546875 C-192.04765625 93.05609375 -191.84140625 91.75671875 -191.62890625 90.41796875 C-188.81117368 76.54454938 -182.9314855 63.74757938 -176.25390625 51.35546875 C-175.69960937 50.30746094 -175.1453125 49.25945312 -174.57421875 48.1796875 C-157.8676649 18.0039742 -129.60320681 -4.40125001 -96.734375 -14.390625 C-66.3788586 -23.0999769 -25.29512635 -21.21891977 0 0 Z " fill="#FEA7C5" transform="translate(233.25390625,141.64453125)"/>
<path d="M0 0 C13.177673 2.60007898 25.6845069 17.41082777 33.02734375 27.89453125 C46.66061191 49.11637478 52.43877381 72.10434104 52.375 97.25 C52.37518127 98.35584946 52.37518127 98.35584946 52.37536621 99.48403931 C52.31905855 123.78374093 47.06917178 146.36633128 39.4375 169.375 C39.12242996 170.32930405 39.12242996 170.32930405 38.80099487 171.30288696 C35.34798173 181.70163661 31.31656272 191.73509504 26.66772461 201.66748047 C19.07014192 218.03734144 18.08942048 232.07355792 24.21289062 249.04296875 C25.77879864 252.93636783 27.91696915 256.42572942 30.125 259.98046875 C36.92746234 270.93526748 41.38808329 282.4331803 45.4375 294.625 C45.65886627 295.28965271 45.88023254 295.95430542 46.10830688 296.63909912 C48.12564686 302.73334484 50.07803555 308.63213867 51 315 C46.53943481 314.41308353 43.07703197 312.61731585 39.25 310.375 C38.63455322 310.01817139 38.01910645 309.66134277 37.38500977 309.29370117 C30.15823793 305.02346497 23.79012813 300.09487171 18 294 C17.25556641 293.32130859 17.25556641 293.32130859 16.49609375 292.62890625 C1.59455717 278.7645996 -9.94704402 257.47471227 -11.17700195 237.0625 C-11.24411895 233.70825461 -11.28488085 230.35480634 -11.3125 227 C-11.34150391 225.85660156 -11.37050781 224.71320313 -11.40039062 223.53515625 C-11.50181483 209.66344578 -6.84704544 197.99535729 -1.25 185.5 C7.12669544 166.3874647 14.18507721 147.57544597 18 127 C18.18691406 126.01805664 18.37382812 125.03611328 18.56640625 124.02441406 C19.96425545 115.98182424 20.31070034 108.08907499 20.26074219 99.95166016 C20.24997322 97.86982364 20.26073459 95.7888427 20.2734375 93.70703125 C20.29606524 72.93538152 14.74318232 53.64428351 0.29296875 38.19921875 C-2.4913571 35.52873246 -5.4691056 33.21916805 -8.6640625 31.05859375 C-10.59573852 28.08200527 -10.08460634 25.86937813 -9.55566406 22.44067383 C-8.65240859 18.47325515 -7.1925594 14.84326178 -5.5625 11.125 C-5.24990234 10.37992188 -4.93730469 9.63484375 -4.61523438 8.8671875 C-3.25452428 5.66822424 -1.93964097 2.90946145 0 0 Z " fill="#50B7E6" transform="translate(240,111)"/>
<path d="M0 0 C9.84644991 -0.67390151 17.50282593 0.79191813 25.1875 7.25 C26.47739443 8.48032099 27.74873557 9.73041161 29 11 C29.59554687 11.57363281 30.19109375 12.14726562 30.8046875 12.73828125 C47.21391053 29.76740826 50.42703937 56.67558329 50.3125 79.125 C50.31001251 79.90201263 50.30752502 80.67902527 50.30496216 81.47958374 C50.24846438 92.87966191 50.00659753 103.93522413 47 115 C46.65340332 116.28704834 46.65340332 116.28704834 46.29980469 117.60009766 C36.94204045 151.28216351 18.13942644 178.80471663 -12 197 C-12.89976562 197.59941406 -13.79953125 198.19882812 -14.7265625 198.81640625 C-15.47679687 199.20699219 -16.22703125 199.59757813 -17 200 C-17.99 199.67 -18.98 199.34 -20 199 C-19.03900391 197.43765625 -19.03900391 197.43765625 -18.05859375 195.84375 C-3.08356131 171.18069949 4.59873872 145.66190704 8 117 C8.103125 116.17234131 8.20625 115.34468262 8.3125 114.49194336 C9.34020188 105.05268511 9.24381117 95.54609315 9.25 86.0625 C9.25067474 85.1313739 9.25134949 84.2002478 9.25204468 83.24090576 C9.22503115 59.67349968 6.48234646 37.08119374 2.0859375 13.921875 C1.21129299 9.28933576 0.51427908 4.68565385 0 0 Z " fill="#50B7E6" transform="translate(462,188)"/>
<path d="M0 0 C1.15628906 -0.00257813 2.31257813 -0.00515625 3.50390625 -0.0078125 C6.4375 0.125 6.4375 0.125 8.4375 1.125 C8.3034375 2.19878906 8.169375 3.27257812 8.03125 4.37890625 C7.89396484 5.47936279 7.89396484 5.47936279 7.75390625 6.60205078 C7.53428668 8.35324575 7.31280038 10.10420723 7.08984375 11.85498047 C5.43020322 24.92464961 3.79163826 37.9450172 3.4375 51.125 C3.41026855 52.03652832 3.38303711 52.94805664 3.35498047 53.88720703 C2.80736561 74.98932175 4.31487863 95.83720276 10.4375 116.125 C10.64745605 116.83817383 10.85741211 117.55134766 11.07373047 118.28613281 C14.22139119 128.83319639 18.28665976 138.54393181 23.45410156 148.25488281 C25.16980569 151.51761707 26.79772606 154.82358848 28.4375 158.125 C16.47126575 157.43464033 7.1896898 152.02033206 -1.5625 144.125 C-2.17609375 143.60421875 -2.7896875 143.0834375 -3.421875 142.546875 C-22.42149182 125.29034229 -31.4338616 94.10020716 -32.76757812 69.3137207 C-32.84865987 65.9535858 -32.88898218 62.60205039 -32.87817383 59.24145508 C-32.87500747 57.19233167 -32.89861106 55.14465046 -32.92382812 53.09570312 C-32.99801577 37.69559408 -30.22603327 21.21774658 -20.30859375 8.87890625 C-14.33567599 2.87926402 -8.4300007 -0.01883799 0 0 Z " fill="#E697B2" transform="translate(32.5625,234.875)"/>
<path d="M0 0 C3.05098852 1.80990844 5.82898866 3.91286508 8.5 6.25 C9.26570313 5.816875 9.26570313 5.816875 10.046875 5.375 C17.10853199 1.7690475 24.1320238 0.75299014 31.8671875 2.91015625 C36.85018533 5.08199115 40.03488493 8.42556878 42.5 13.25 C44.47886736 19.82085443 43.64641963 25.44524411 40.93359375 31.640625 C33.66288211 44.87450885 17.62156875 54.6232752 3.5 59.25 C-0.2791488 59.03527564 -2.53135503 56.85641608 -5.375 54.5 C-6.25671875 53.77039062 -7.1384375 53.04078125 -8.046875 52.2890625 C-9.26117188 51.27972656 -9.26117188 51.27972656 -10.5 50.25 C-11.53125 49.46625 -12.5625 48.6825 -13.625 47.875 C-22.6693828 39.61708527 -29.93985945 29.14502985 -30.63671875 16.6015625 C-30.28667742 10.58085162 -27.74958616 5.49958616 -23.5 1.25 C-17.12490592 -3.49045457 -7.04338269 -3.38778673 0 0 Z " fill="#EF524F" transform="translate(211.5,8.75)"/>
<path d="M0 0 C5.12422004 12.84471156 10.34131752 26.17216686 10.53125 40.1796875 C10.81777476 42.17724736 10.81777476 42.17724736 12.796875 43.0703125 C13.52390625 43.37710938 14.2509375 43.68390625 15 44 C22.16465992 49.29823591 29.51933597 56.68036403 33 65 C33.55585 69.36739283 33.46518559 71.30222162 31 75 C27.77146584 77.15235611 25.85069858 77.64503029 22.00390625 76.9296875 C18.14340095 75.13865385 16.1349229 71.55011801 14 68 C13.81824219 68.62648438 13.63648438 69.25296875 13.44921875 69.8984375 C13.19785156 70.71570313 12.94648438 71.53296875 12.6875 72.375 C12.44386719 73.18710937 12.20023437 73.99921875 11.94921875 74.8359375 C11 77 11 77 8 79 C4.98554927 79.33493897 2.90099398 79.55563393 0 79 C-3.33785093 76.26125052 -4.19806456 73.83069535 -4.75 69.6875 C-4.87375 67.8621875 -4.87375 67.8621875 -5 66 C-5.39832031 66.62648438 -5.79664063 67.25296875 -6.20703125 67.8984375 C-6.73683594 68.71570313 -7.26664062 69.53296875 -7.8125 70.375 C-8.33457031 71.18710937 -8.85664063 71.99921875 -9.39453125 72.8359375 C-11 75 -11 75 -14 77 C-17.74978363 76.86364423 -20.27006493 76.43796104 -23.5 74.5 C-25.47608078 71.20653204 -25.3466538 69.16458816 -24.734375 65.4296875 C-22.42371154 57.78483287 -15.45977652 48.93364732 -8.796875 44.55078125 C-6.81806342 43.1671861 -6.81806342 43.1671861 -6.6171875 41.00390625 C-7.59232421 31.76965714 -10.48905911 23.08874543 -13.28857422 14.27539062 C-14.25049105 11.19884125 -15.13167938 8.10414134 -16 5 C-13.89828133 4.1605118 -11.79353375 3.32860344 -9.6875 2.5 C-8.51574219 2.0359375 -7.34398437 1.571875 -6.13671875 1.09375 C-3 0 -3 0 0 0 Z " fill="#FE8F00" transform="translate(397,426)"/>
<path d="M0 0 C5.0910235 2.61770259 10.11625816 5.54471701 14.16796875 9.62890625 C14.16796875 10.94890625 14.16796875 12.26890625 14.16796875 13.62890625 C13.34296875 14.2321875 12.51796875 14.83546875 11.66796875 15.45703125 C8.82107297 17.42800303 8.82107297 17.42800303 8.85546875 20.80078125 C9.01015625 22.57195312 9.01015625 22.57195312 9.16796875 24.37890625 C9.39510033 31.01390147 8.68974827 34.7426508 4.16796875 39.62890625 C-2.09706237 46.13203831 -7.75883734 48.76386748 -16.76953125 49.12890625 C-24.32436168 48.94464209 -28.16381267 47.08727251 -33.5390625 42.01953125 C-38.60170556 36.64894154 -40.93336834 31.05749963 -41.20703125 23.69140625 C-40.92936525 15.82017882 -38.43986725 8.30430654 -32.83203125 2.62890625 C-22.68860286 -5.94086876 -11.72214521 -5.01153833 0 0 Z " fill="#FD8F02" transform="translate(380.83203125,161.37109375)"/>
<path d="M0 0 C4.56379901 3.22150519 6.45234929 5.88882909 7.5 11.375 C9.38828975 23.4568539 4.24802674 35.13425719 -2.5625 44.9375 C-5.48914671 48.92664671 -5.48914671 48.92664671 -6.8125 50.25 C-21.29298338 50.16737242 -36.13960874 47.67468448 -46.8125 37.25 C-50.30878747 32.23865463 -50.67144054 27.17572464 -49.8125 21.25 C-47.23062137 15.8876367 -43.44002173 12.65420196 -37.875 10.5 C-33.42961981 9.96116604 -29.10574301 9.87616224 -24.8125 11.25 C-24.503125 9.9196875 -24.503125 9.9196875 -24.1875 8.5625 C-22.18063175 3.72777196 -18.94839494 1.43036299 -14.4375 -1.0625 C-9.15984617 -2.44474267 -4.81016159 -2.58304661 0 0 Z " fill="#EF524F" transform="translate(158.8125,50.75)"/>
<path d="M0 0 C5.19644079 1.59890486 10.06612142 3.74138003 15 6 C14.3735591 9.31407445 13.6086499 12.52954931 12.66015625 15.765625 C12.40169922 16.65636719 12.14324219 17.54710937 11.87695312 18.46484375 C11.33850129 20.30616827 10.79944906 22.14731733 10.25976562 23.98828125 C8.62508866 29.62649709 7.21330426 35.25585425 6 41 C6.61568848 41.29261719 7.23137695 41.58523438 7.86572266 41.88671875 C15.40553865 45.81963581 21.77345491 54.26114373 25 62 C25.69174623 65.19807315 25.85115897 67.8274984 25 71 C22.9375 73.625 22.9375 73.625 20 75 C16.15769214 75 13.91552001 74.68010058 10.8125 72.375 C8.53200372 69.38676349 6.78252686 66.31040703 5 63 C4.96132812 64.01320313 4.96132812 64.01320313 4.921875 65.046875 C4.4659591 72.21718871 4.4659591 72.21718871 2.4375 75.625 C-1.07611576 77.60703966 -4.06209846 77.77625985 -8 77 C-10.4375 75.5 -10.4375 75.5 -12 73 C-12.60385912 70.29553695 -12.81448364 67.78274541 -13 65 C-13.42410156 65.63808594 -13.84820312 66.27617187 -14.28515625 66.93359375 C-19.05933461 73.65941426 -19.05933461 73.65941426 -23.625 75.3125 C-27.80931748 74.9250632 -29.27961683 74.20045078 -32 71 C-33.25 67.9375 -33.25 67.9375 -33 64 C-29.17180761 55.45302879 -21.06027465 45.40957251 -12.78515625 40.75390625 C-9.79059271 37.81176396 -9.75411365 33.96935717 -9.125 29.9375 C-7.84819657 22.691226 -6.18805113 15.77960146 -3.8125 8.8125 C-3.55033691 8.04091553 -3.28817383 7.26933105 -3.01806641 6.47436523 C-1.16187229 1.16187229 -1.16187229 1.16187229 0 0 Z " fill="#FE8F00" transform="translate(94,424)"/>
<path d="M0 0 C2.77251194 0.44959653 5.54269519 0.90926079 8.3125 1.375 C9.09818359 1.50132812 9.88386719 1.62765625 10.69335938 1.7578125 C11.45068359 1.88671875 12.20800781 2.015625 12.98828125 2.1484375 C14.03302612 2.32125244 14.03302612 2.32125244 15.09887695 2.49755859 C17 3 17 3 20 5 C20.97214867 7.59634829 21.77197024 10.08588153 22.5 12.75 C22.82907349 13.88767822 22.82907349 13.88767822 23.16479492 15.04833984 C24.1896226 18.67640438 25.09556655 22.27080016 25.70703125 25.9921875 C27.13441199 34.55647193 29.01516621 37.99836009 36 43 C42.13661658 48.5161866 48.36946879 54.2710159 49.5 62.75 C48.72527473 67.78571429 48.72527473 67.78571429 46 70 C43.28414229 70.9052859 40.85591284 71.22959299 38 71 C33.73563511 68.5770654 31.53532346 65.13163823 29 61 C28.89042969 61.69867188 28.78085937 62.39734375 28.66796875 63.1171875 C28.43013672 64.48230469 28.43013672 64.48230469 28.1875 65.875 C28.03667969 66.77992188 27.88585937 67.68484375 27.73046875 68.6171875 C27 71 27 71 24 73 C16.98113208 73.77987421 16.98113208 73.77987421 13.5625 71.0625 C11.52406875 67.06717475 11.19330914 63.43644484 11 59 C10.61328125 59.69867188 10.2265625 60.39734375 9.828125 61.1171875 C9.30734375 62.02726562 8.7865625 62.93734375 8.25 63.875 C7.73953125 64.77992188 7.2290625 65.68484375 6.703125 66.6171875 C4.90908784 69.12719362 3.89525526 70.03678162 1 71 C-2.68060775 70.87085587 -5.0716765 70.77859391 -7.9375 68.375 C-9.5139176 64.85124301 -9.56054009 62.86149838 -9 59 C-5.25787282 50.56603912 1.31149852 42.12566765 9 37 C8.38555382 24.30144569 4.19762262 11.93008535 0 0 Z " fill="#FE8F00" transform="translate(307,432)"/>
<path d="M0 0 C-0.17128418 0.57854736 -0.34256836 1.15709473 -0.51904297 1.75317383 C-1.88025892 6.37220878 -3.20718112 10.99759899 -4.484375 15.640625 C-5.30998427 18.63889024 -6.18542386 21.50133116 -7.265625 24.421875 C-8.21901708 27.35138885 -8.6598026 28.97829534 -8 32 C-5.3064537 35.40049035 -2.36866851 38.19902742 0.86328125 41.07421875 C5.87933262 45.57572705 9.0136376 50.92487018 11.0625 57.3125 C10.98328852 60.7185937 10.07746054 62.32897931 8 65 C5 67 5 67 1.5 66.8125 C-2.79832134 65.8146754 -3.96888897 64.51907343 -6.38671875 60.95703125 C-6.81597656 60.24933594 -7.24523437 59.54164063 -7.6875 58.8125 C-8.12449219 58.09707031 -8.56148437 57.38164062 -9.01171875 56.64453125 C-9.50091797 55.83048828 -9.50091797 55.83048828 -10 55 C-10.03867188 56.01320313 -10.03867188 56.01320313 -10.078125 57.046875 C-10.5340409 64.21718871 -10.5340409 64.21718871 -12.5625 67.625 C-16.06712376 69.60196725 -19.07669456 69.91839183 -23 69 C-26.28449464 66.22081223 -26.91859128 64.41382766 -27.75 60.1875 C-27.8325 59.135625 -27.915 58.08375 -28 57 C-28.39832031 57.55429687 -28.79664063 58.10859375 -29.20703125 58.6796875 C-29.73683594 59.40414062 -30.26664063 60.12859375 -30.8125 60.875 C-31.59560547 61.95394531 -31.59560547 61.95394531 -32.39453125 63.0546875 C-34 65 -34 65 -37 67 C-40.3675602 66.81959499 -42.99113606 66.63894716 -45.875 64.8125 C-47.58192018 62.06246193 -47.93846205 60.26151125 -48 57 C-44.97964812 47.93894435 -36.62455608 39.14110188 -28.78515625 33.81640625 C-24.67067769 29.65576243 -24.27474468 25.2635408 -23.3125 19.625 C-22.10464647 13.03822781 -20.95275919 7.04166866 -18 1 C-16.50060922 0.82793876 -15.00043567 0.66269784 -13.5 0.5 C-12.6646875 0.4071875 -11.829375 0.314375 -10.96875 0.21875 C-7.29901642 -0.05165142 -3.67949584 -0.03144868 0 0 Z " fill="#FE8F00" transform="translate(176,436)"/>
<path d="M0 0 C6.93597894 4.1518867 11.64546895 9.82282603 13.79296875 17.671875 C15.30507866 26.41581491 12.77645754 33.45948405 7.79296875 40.671875 C2.38233868 46.12396583 -2.37400526 47.79774612 -9.95703125 47.984375 C-16.81832889 47.89266871 -21.22162454 46.55678287 -26.1796875 41.765625 C-31.17277802 36.2701496 -33.35246208 32.7720693 -33.45703125 25.234375 C-33.63391423 20.67308452 -33.63391423 20.67308452 -35.6015625 16.7109375 C-37.3979567 15.18214225 -37.3979567 15.18214225 -40.20703125 13.671875 C-30.61755805 2.75971584 -14.43581775 -5.97829237 0 0 Z " fill="#FE8F01" transform="translate(153.20703125,220.328125)"/>
<path d="M0 0 C0.66 0.33 1.32 0.66 2 1 C2.51966387 7.92885161 2.79585943 13.50212426 -1.44921875 19.25390625 C-6.76262916 25.23651193 -12.15419752 29.47956775 -20.2734375 30.3515625 C-27.89097238 30.66016199 -33.28430985 30.2493751 -39 25 C-39.56332031 24.49210937 -40.12664062 23.98421875 -40.70703125 23.4609375 C-43.89630826 20.18630272 -45.4370631 17.16193572 -46.66796875 12.76171875 C-47.04924927 11.42113403 -47.04924927 11.42113403 -47.43823242 10.0534668 C-47.62361572 9.37582275 -47.80899902 8.69817871 -48 8 C-47.30551758 8.01571045 -46.61103516 8.0314209 -45.89550781 8.04760742 C-42.68042491 8.11083134 -39.46547348 8.14926391 -36.25 8.1875 C-35.15816406 8.21263672 -34.06632812 8.23777344 -32.94140625 8.26367188 C-22.97266515 8.35215183 -13.83383628 6.79627513 -4.875 2.25 C-2.1796875 0.890625 -2.1796875 0.890625 0 0 Z " fill="#E48102" transform="translate(388,180)"/>
<path d="M0 0 C0.71510742 0.28649414 1.43021484 0.57298828 2.16699219 0.86816406 C3.10188477 1.24166992 4.03677734 1.61517578 5 2 C5.8446582 2.35030273 6.68931641 2.70060547 7.55957031 3.06152344 C16.01571045 6.2620308 23.79935804 6.47850868 32.75 6.25 C34.14059885 6.22987462 35.53122631 6.21163467 36.921875 6.1953125 C40.28200237 6.14864406 43.64061222 6.08318484 47 6 C45.84725363 13.65621207 42.74584741 20.33928554 36.375 25.0625 C29.84861444 28.80912875 21.97841075 29.31806153 14.68359375 27.38671875 C8.58158504 24.67604169 4.35427365 19.6862969 0.8125 14.140625 C-0.27847477 11.26632609 -0.19159239 8.81324974 -0.125 5.75 C-0.10695313 4.67234375 -0.08890625 3.5946875 -0.0703125 2.484375 C-0.04710938 1.66453125 -0.02390625 0.8446875 0 0 Z " fill="#E68101" transform="translate(120,240)"/>
<path d="M0 0 C3.58158826 0.51165547 5.06434706 0.87698914 7.5 3.5 C9.31289896 9.13601923 9.66887245 15.49234797 7.51171875 21.04296875 C3.89247323 27.12941827 -0.80673449 30.33819996 -7.5 32.5 C-12.69369832 33.56148579 -17.04648736 32.35644483 -21.60546875 29.84765625 C-25.36686753 27.17202206 -28.43491423 23.63017154 -30.5 19.5 C-30.875 16.125 -30.875 16.125 -30.5 12.5 C-28.4375 10 -28.4375 10 -25.5 8.5 C-22 8.375 -22 8.375 -18.5 9.5 C-17.1171875 10.91796875 -17.1171875 10.91796875 -15.875 12.5625 C-13.82997641 15.76197888 -13.82997641 15.76197888 -10.75 15.9375 C-8.53876234 15.72514289 -8.53876234 15.72514289 -7.5 14.5 C-7.53221997 13.08232142 -7.60079556 11.66539148 -7.6875 10.25 C-7.70906779 6.86924842 -7.52236154 5.54382863 -5.9375 2.4375 C-3.5 0.5 -3.5 0.5 0 0 Z " fill="#222425" transform="translate(397.5,113.5)"/>
<path d="M0 0 C3.96545673 0.63730555 5.10063397 1.4248675 7.5 4.5625 C9.63193609 8.82637218 9.07307728 13.94383759 8.5 18.5625 C6.34760079 24.26252954 2.91274774 27.70368258 -2.375 30.625 C-7.72519692 32.93167172 -11.85854907 33.73493685 -17.5625 31.8984375 C-23.32479076 29.38834872 -27.68105656 25.20038687 -30.5 19.5625 C-30.875 16.1875 -30.875 16.1875 -30.5 12.5625 C-28.4375 10.0625 -28.4375 10.0625 -25.5 8.5625 C-21.9375 8.4375 -21.9375 8.4375 -18.5 9.5625 C-17.15729179 11.55621825 -15.82346506 13.5559562 -14.5 15.5625 C-11.37237733 16.14692963 -11.37237733 16.14692963 -8.5 15.5625 C-8.17 15.2325 -7.84 14.9025 -7.5 14.5625 C-7.53221997 13.14482142 -7.60079556 11.72789148 -7.6875 10.3125 C-7.70906779 6.93174842 -7.52236154 5.60632863 -5.9375 2.5 C-3.5 0.5625 -3.5 0.5625 0 0 Z " fill="#222425" transform="translate(323.5,139.4375)"/>
<path d="M0 0 C1.90625 0.40234375 1.90625 0.40234375 4.40625 1.77734375 C6.72345603 5.83245431 6.2198204 9.83815239 5.90625 14.40234375 C8.28553881 14.69475612 8.28553881 14.69475612 10.90625 14.40234375 C12.53984661 12.89591454 12.53984661 12.89591454 13.78125 10.90234375 C16.16420679 7.87451463 16.52270873 7.47508433 20.53125 6.71484375 C23.90625 7.40234375 23.90625 7.40234375 26.40625 8.83984375 C28.36731059 12.18998893 28.26276524 14.30954625 27.640625 18.0859375 C25.92481953 23.49802602 22.38051896 26.54003549 17.59375 29.33984375 C11.72956196 31.02952505 7.08293804 31.02952505 1.21875 29.33984375 C-3.942755 26.32085026 -7.83577383 21.99057701 -10.09375 16.40234375 C-10.74251357 11.34047918 -10.78253702 6.86601616 -8.59375 2.21484375 C-5.55466351 0.01150605 -3.69138067 -0.28236307 0 0 Z " fill="#252324" transform="translate(112.09375,177.59765625)"/>
<path d="M0 0 C2.171875 1.20703125 2.171875 1.20703125 4 3 C4.609375 5.48046875 4.609375 5.48046875 4.75 8.1875 C4.80671875 9.08855469 4.8634375 9.98960937 4.921875 10.91796875 C4.96054688 11.94857422 4.96054688 11.94857422 5 13 C7.475 13.495 7.475 13.495 10 14 C10.6496875 12.824375 10.6496875 12.824375 11.3125 11.625 C13 9 13 9 16 7 C19.66969582 6.52134402 21.59856046 6.80355086 24.9375 8.4375 C27.20959832 11.26041004 27.35293775 11.85012416 27.1875 15.3125 C26.28087801 20.45567336 23.96515517 23.6822171 20 27 C14.33326389 30.44448665 8.47352277 31.09859222 2 30 C-3.71039336 27.62718815 -8.00646165 24.04125549 -10.41015625 18.28125 C-11.89038916 12.55637569 -12.05882525 7.16000351 -9.4375 1.8125 C-6.08791505 -0.67821701 -4.08298987 -0.58328427 0 0 Z " fill="#242223" transform="translate(184,200)"/>
<path d="M0 0 C2.77251194 0.44959653 5.54269519 0.90926079 8.3125 1.375 C9.49102539 1.56449219 9.49102539 1.56449219 10.69335938 1.7578125 C11.45068359 1.88671875 12.20800781 2.015625 12.98828125 2.1484375 C14.03302612 2.32125244 14.03302612 2.32125244 15.09887695 2.49755859 C17 3 17 3 20 5 C20.79956055 6.73999023 20.79956055 6.73999023 21.38671875 8.80859375 C21.60263672 9.55560547 21.81855469 10.30261719 22.04101562 11.07226562 C22.36102539 12.24305664 22.36102539 12.24305664 22.6875 13.4375 C22.91244141 14.21416016 23.13738281 14.99082031 23.36914062 15.79101562 C24.27915818 19.00235418 25 21.64007681 25 25 C18.71739294 25.23268915 13.11980533 24.40454548 7 23 C6.20723961 20.47950607 5.41576535 17.95861986 4.625 15.4375 C4.40328125 14.73302734 4.1815625 14.02855469 3.953125 13.30273438 C2.56894857 8.88558313 1.25310767 4.45614457 0 0 Z " fill="#E68200" transform="translate(307,432)"/>
<path d="M0 0 C-1.98 6.93 -3.96 13.86 -6 21 C-9.83567829 21.95891957 -12.82281141 22.10177189 -16.75 22.0625 C-17.92046875 22.05347656 -19.0909375 22.04445313 -20.296875 22.03515625 C-21.18890625 22.02355469 -22.0809375 22.01195312 -23 22 C-21.9478458 4.9478458 -21.9478458 4.9478458 -18 1 C-16.48640343 0.76101107 -14.96280873 0.58420908 -13.4375 0.4375 C-12.61121094 0.35371094 -11.78492188 0.26992188 -10.93359375 0.18359375 C-7.29566603 -0.04407949 -3.64504502 0 0 0 Z " fill="#E78201" transform="translate(176,436)"/>
<path d="M0 0 C1.00816056 2.58041096 2.0067111 5.16386944 3 7.75 C3.42925781 8.84441406 3.42925781 8.84441406 3.8671875 9.9609375 C4.13789063 10.66992188 4.40859375 11.37890625 4.6875 12.109375 C4.93886719 12.75874023 5.19023437 13.40810547 5.44921875 14.07714844 C6 16 6 16 6 20 C4.274773 20.67679658 2.54461061 21.34102 0.8125 22 C-0.15042969 22.37125 -1.11335938 22.7425 -2.10546875 23.125 C-4.92182358 23.97636772 -7.08164439 24.17072647 -10 24 C-11.00380916 21.20964954 -12.0031945 18.41785145 -13 15.625 C-13.42925781 14.43390625 -13.42925781 14.43390625 -13.8671875 13.21875 C-14.13789063 12.45820313 -14.40859375 11.69765625 -14.6875 10.9140625 C-14.93886719 10.2123291 -15.19023437 9.5105957 -15.44921875 8.78759766 C-16 7 -16 7 -16 5 C-13.89828133 4.1605118 -11.79353375 3.32860344 -9.6875 2.5 C-8.51574219 2.0359375 -7.34398437 1.571875 -6.13671875 1.09375 C-3 0 -3 0 0 0 Z " fill="#E68201" transform="translate(397,426)"/>
<path d="M0 0 C3.72542134 1.19861382 7.31250159 2.50568254 10.875 4.125 C11.65617187 4.47820312 12.43734375 4.83140625 13.2421875 5.1953125 C13.82226562 5.46085937 14.40234375 5.72640625 15 6 C14.25941203 9.97972524 13.29318177 13.85588573 12.1875 17.75 C11.87167969 18.89984375 11.55585937 20.0496875 11.23046875 21.234375 C10 24 10 24 8.25390625 25.04296875 C5.03222951 24.9815503 2.68207784 23.86918686 -0.25 22.5625 C-1.32765625 22.08941406 -2.4053125 21.61632812 -3.515625 21.12890625 C-4.33546875 20.75636719 -5.1553125 20.38382812 -6 20 C-5.57534294 12.63927766 -3.01651083 6.67862176 0 0 Z " fill="#E78200" transform="translate(94,424)"/>
</svg>
